<svg xmlns="http://www.w3.org/2000/svg" xmlns:xlink="http://www.w3.org/1999/xlink" width="500" zoomAndPan="magnify" viewBox="0 0 375 374.999991" height="500" preserveAspectRatio="xMidYMid meet" version="1.0"><defs><clipPath id="44f84d299e"><path d="M 27 186 L 91 186 L 91 373.40625 L 27 373.40625 Z M 27 186 " clip-rule="nonzero"/></clipPath></defs><path fill="#69a820" d="M 144.972656 207.101562 C 151.417969 176.539062 184.777344 156.039062 190.140625 153.066406 C 251.210938 119.152344 314.742188 110.628906 314.742188 110.628906 C 219.101562 100.085938 157.753906 155.191406 157.753906 155.191406 C 212.53125 1.441406 374.789062 114.316406 374.789062 114.316406 C 374.789062 114.316406 344.296875 125.902344 314.398438 151.226562 C 258.363281 198.699219 178.175781 167.019531 144.972656 207.101562 " fill-opacity="1" fill-rule="nonzero"/><path fill="#80cc28" d="M 122.039062 242.417969 C 128.117188 219.84375 112.8125 194.839844 110.25 191.035156 C 81.011719 147.683594 41.527344 120.429688 41.527344 120.429688 C 108.910156 145.859375 131.136719 203.445312 131.136719 203.445312 C 146.773438 82.277344 0.210938 102.511719 0.210938 102.511719 C 0.210938 102.511719 16.621094 120.589844 27.96875 147.632812 C 49.242188 198.324219 113.492188 204.410156 122.039062 242.417969 " fill-opacity="1" fill-rule="nonzero"/><path fill="#f3c6a7" d="M 267.433594 243.105469 C 268.574219 242.46875 269.664062 241.90625 270.722656 241.386719 C 274.628906 236.605469 277.816406 232.367188 279.738281 229.265625 C 281.796875 225.9375 272.867188 225.679688 259.875 238.121094 C 252.207031 245.464844 244.578125 252.074219 237.199219 257.90625 C 246.515625 253.980469 256.648438 249.097656 267.433594 243.105469 " fill-opacity="1" fill-rule="nonzero"/><path fill="#f3c6a7" d="M 94.144531 329.890625 C 94.144531 329.890625 120.46875 304.089844 149.660156 300.960938 C 161.570312 299.683594 211.433594 291.578125 235.863281 278.597656 C 254.804688 268.535156 281.339844 250.933594 290.410156 242.316406 C 293.246094 239.621094 284.675781 237.101562 268.953125 245.839844 C 218.597656 273.816406 174.828125 281.363281 172.335938 268.898438 C 170.183594 258.132812 185.535156 247.292969 198.5625 239.613281 C 210.765625 232.417969 208.8125 229.621094 200.671875 230.996094 C 104.046875 247.269531 94.144531 329.890625 94.144531 329.890625 " fill-opacity="1" fill-rule="nonzero"/><path fill="#f3c6a7" d="M 39.253906 205.117188 C 39.175781 203.976562 39.078125 202.90625 38.953125 201.886719 C 40.609375 196.738281 42.207031 192.386719 43.574219 189.5 C 45.039062 186.40625 49.476562 192.839844 46.511719 208.296875 C 44.757812 217.425781 43.527344 226.167969 42.75 234.367188 C 41.207031 225.652344 39.980469 215.882812 39.253906 205.117188 " fill-opacity="1" fill-rule="nonzero"/><g clip-path="url(#44f84d299e)"><path fill="#f3c6a7" d="M 57.859375 373.667969 C 57.859375 373.667969 64.304688 342.066406 52.726562 319.136719 C 48.003906 309.785156 30.257812 269.292969 28.183594 245.175781 C 26.574219 226.484375 26.894531 198.621094 28.914062 187.863281 C 29.542969 184.5 35.46875 189.597656 36.527344 205.300781 C 39.90625 255.589844 55.160156 291.328125 65.503906 287.238281 C 74.429688 283.703125 75.101562 267.273438 74.554688 254.054688 C 74.039062 241.667969 77.023438 241.777344 79.882812 248.40625 C 113.847656 327.125 57.859375 373.667969 57.859375 373.667969 " fill-opacity="1" fill-rule="nonzero"/></g></svg>