<svg xmlns="http://www.w3.org/2000/svg" xmlns:xlink="http://www.w3.org/1999/xlink" width="500" zoomAndPan="magnify" viewBox="0 0 375 70.499998" height="94" preserveAspectRatio="xMidYMid meet" version="1.0"><defs><g/><clipPath id="78255253a9"><path d="M 34 0.285156 L 88.113281 0.285156 L 88.113281 32 L 34 32 Z M 34 0.285156 " clip-rule="nonzero"/></clipPath><clipPath id="519736c7e2"><path d="M 1.320312 6 L 32 6 L 32 40 L 1.320312 40 Z M 1.320312 6 " clip-rule="nonzero"/></clipPath><clipPath id="d7d286b2e0"><path d="M 7 26 L 23 26 L 23 69.589844 L 7 69.589844 Z M 7 26 " clip-rule="nonzero"/></clipPath></defs><g fill="#00a63e" fill-opacity="1"><g transform="translate(95.052588, 52.471419)"><g><path d="M 24.109375 -30.53125 C 23.992188 -29.289062 23.914062 -28.097656 23.875 -26.953125 C 23.832031 -25.804688 23.8125 -24.929688 23.8125 -24.328125 C 23.8125 -23.660156 23.820312 -23.039062 23.84375 -22.46875 C 23.875 -21.894531 23.90625 -21.390625 23.9375 -20.953125 L 22.9375 -20.953125 C 22.625 -23.109375 22.191406 -24.8125 21.640625 -26.0625 C 21.097656 -27.3125 20.363281 -28.203125 19.4375 -28.734375 C 18.519531 -29.273438 17.300781 -29.546875 15.78125 -29.546875 L 13.921875 -29.546875 C 13.066406 -29.546875 12.40625 -29.472656 11.9375 -29.328125 C 11.476562 -29.179688 11.171875 -28.878906 11.015625 -28.421875 C 10.859375 -27.960938 10.78125 -27.257812 10.78125 -26.3125 L 10.78125 -4.75 C 10.78125 -3.65625 10.894531 -2.832031 11.125 -2.28125 C 11.351562 -1.738281 11.796875 -1.378906 12.453125 -1.203125 C 13.117188 -1.035156 14.070312 -0.9375 15.3125 -0.90625 L 15.3125 0 C 14.476562 -0.0625 13.398438 -0.0976562 12.078125 -0.109375 C 10.753906 -0.117188 9.390625 -0.125 7.984375 -0.125 C 6.773438 -0.125 5.609375 -0.117188 4.484375 -0.109375 C 3.359375 -0.0976562 2.378906 -0.0625 1.546875 0 L 1.546875 -0.859375 C 2.492188 -0.921875 3.207031 -1.035156 3.6875 -1.203125 C 4.164062 -1.378906 4.484375 -1.722656 4.640625 -2.234375 C 4.796875 -2.753906 4.875 -3.535156 4.875 -4.578125 L 4.875 -25.96875 C 4.875 -27.03125 4.796875 -27.8125 4.640625 -28.3125 C 4.484375 -28.8125 4.164062 -29.15625 3.6875 -29.34375 C 3.207031 -29.53125 2.492188 -29.640625 1.546875 -29.671875 L 1.546875 -30.53125 C 2.703125 -30.5 3.914062 -30.476562 5.1875 -30.46875 C 6.46875 -30.457031 7.734375 -30.441406 8.984375 -30.421875 C 10.242188 -30.410156 11.410156 -30.40625 12.484375 -30.40625 C 13.566406 -30.40625 14.4375 -30.40625 15.09375 -30.40625 C 16.414062 -30.40625 17.914062 -30.410156 19.59375 -30.421875 C 21.28125 -30.441406 22.785156 -30.476562 24.109375 -30.53125 Z M 17.59375 -15.53125 C 17.59375 -15.53125 17.59375 -15.382812 17.59375 -15.09375 C 17.59375 -14.800781 17.59375 -14.65625 17.59375 -14.65625 L 9.484375 -14.65625 C 9.484375 -14.65625 9.484375 -14.800781 9.484375 -15.09375 C 9.484375 -15.382812 9.484375 -15.53125 9.484375 -15.53125 Z M 18.59375 -21.21875 C 18.476562 -19.582031 18.425781 -18.332031 18.4375 -17.46875 C 18.445312 -16.601562 18.453125 -15.8125 18.453125 -15.09375 C 18.453125 -14.375 18.46875 -13.582031 18.5 -12.71875 C 18.53125 -11.851562 18.601562 -10.601562 18.71875 -8.96875 L 17.71875 -8.96875 C 17.601562 -9.945312 17.390625 -10.875 17.078125 -11.75 C 16.765625 -12.625 16.28125 -13.328125 15.625 -13.859375 C 14.976562 -14.390625 14.050781 -14.65625 12.84375 -14.65625 L 12.84375 -15.53125 C 13.738281 -15.53125 14.472656 -15.710938 15.046875 -16.078125 C 15.617188 -16.453125 16.070312 -16.9375 16.40625 -17.53125 C 16.738281 -18.125 17 -18.742188 17.1875 -19.390625 C 17.375 -20.035156 17.507812 -20.644531 17.59375 -21.21875 Z M 18.59375 -21.21875 "/></g></g></g><g fill="#00a63e" fill-opacity="1"><g transform="translate(120.279986, 52.471419)"><g><path d="M 15.4375 -22.90625 C 16.332031 -22.90625 17.070312 -22.71875 17.65625 -22.34375 C 18.25 -21.96875 18.6875 -21.488281 18.96875 -20.90625 C 19.257812 -20.332031 19.40625 -19.734375 19.40625 -19.109375 C 19.40625 -18.160156 19.125 -17.367188 18.5625 -16.734375 C 18 -16.097656 17.257812 -15.78125 16.34375 -15.78125 C 15.476562 -15.78125 14.769531 -16.007812 14.21875 -16.46875 C 13.675781 -16.925781 13.40625 -17.5625 13.40625 -18.375 C 13.40625 -19.09375 13.582031 -19.695312 13.9375 -20.1875 C 14.300781 -20.675781 14.71875 -21.0625 15.1875 -21.34375 C 14.863281 -21.519531 14.503906 -21.578125 14.109375 -21.515625 C 13.410156 -21.460938 12.773438 -21.21875 12.203125 -20.78125 C 11.628906 -20.351562 11.140625 -19.820312 10.734375 -19.1875 C 10.335938 -18.550781 10.03125 -17.875 9.8125 -17.15625 C 9.59375 -16.4375 9.484375 -15.75 9.484375 -15.09375 L 9.484375 -4.4375 C 9.484375 -3.03125 9.84375 -2.085938 10.5625 -1.609375 C 11.28125 -1.140625 12.332031 -0.90625 13.71875 -0.90625 L 13.71875 0 C 13.050781 -0.03125 12.09375 -0.0664062 10.84375 -0.109375 C 9.59375 -0.148438 8.289062 -0.171875 6.9375 -0.171875 C 5.820312 -0.171875 4.707031 -0.148438 3.59375 -0.109375 C 2.488281 -0.0664062 1.664062 -0.03125 1.125 0 L 1.125 -0.90625 C 2.1875 -0.90625 2.9375 -1.117188 3.375 -1.546875 C 3.820312 -1.984375 4.046875 -2.804688 4.046875 -4.015625 L 4.046875 -17.59375 C 4.046875 -18.882812 3.835938 -19.835938 3.421875 -20.453125 C 3.003906 -21.078125 2.238281 -21.390625 1.125 -21.390625 L 1.125 -22.296875 C 2.039062 -22.210938 2.929688 -22.171875 3.796875 -22.171875 C 4.859375 -22.171875 5.867188 -22.21875 6.828125 -22.3125 C 7.796875 -22.414062 8.679688 -22.566406 9.484375 -22.765625 L 9.484375 -18.28125 C 9.828125 -19.09375 10.28125 -19.84375 10.84375 -20.53125 C 11.40625 -21.21875 12.082031 -21.785156 12.875 -22.234375 C 13.664062 -22.679688 14.519531 -22.90625 15.4375 -22.90625 Z M 15.4375 -22.90625 "/></g></g></g><g fill="#00a63e" fill-opacity="1"><g transform="translate(139.383765, 52.471419)"><g><path d="M 11.984375 -22.90625 C 14.515625 -22.90625 16.5 -22.140625 17.9375 -20.609375 C 19.375 -19.085938 20.09375 -16.660156 20.09375 -13.328125 L 5.5625 -13.328125 L 5.515625 -14.140625 L 15.09375 -14.140625 C 15.15625 -15.554688 15.066406 -16.859375 14.828125 -18.046875 C 14.597656 -19.242188 14.234375 -20.203125 13.734375 -20.921875 C 13.234375 -21.640625 12.578125 -22 11.765625 -22 C 10.679688 -22 9.734375 -21.359375 8.921875 -20.078125 C 8.117188 -18.796875 7.617188 -16.703125 7.421875 -13.796875 L 7.59375 -13.546875 C 7.53125 -13.171875 7.488281 -12.765625 7.46875 -12.328125 C 7.457031 -11.898438 7.453125 -11.472656 7.453125 -11.046875 C 7.453125 -9.054688 7.738281 -7.414062 8.3125 -6.125 C 8.894531 -4.832031 9.644531 -3.882812 10.5625 -3.28125 C 11.488281 -2.675781 12.4375 -2.375 13.40625 -2.375 C 14.070312 -2.375 14.75 -2.472656 15.4375 -2.671875 C 16.125 -2.867188 16.796875 -3.238281 17.453125 -3.78125 C 18.117188 -4.332031 18.726562 -5.113281 19.28125 -6.125 L 20.09375 -5.78125 C 19.78125 -4.769531 19.253906 -3.769531 18.515625 -2.78125 C 17.785156 -1.789062 16.84375 -0.976562 15.6875 -0.34375 C 14.539062 0.289062 13.191406 0.609375 11.640625 0.609375 C 9.691406 0.609375 7.96875 0.175781 6.46875 -0.6875 C 4.96875 -1.550781 3.800781 -2.835938 2.96875 -4.546875 C 2.132812 -6.253906 1.71875 -8.347656 1.71875 -10.828125 C 1.71875 -13.441406 2.15625 -15.640625 3.03125 -17.421875 C 3.914062 -19.203125 5.132812 -20.5625 6.6875 -21.5 C 8.238281 -22.4375 10.003906 -22.90625 11.984375 -22.90625 Z M 11.984375 -22.90625 "/></g></g></g><g fill="#00a63e" fill-opacity="1"><g transform="translate(161.161261, 52.471419)"><g><path d="M 9.359375 -22.90625 C 10.566406 -22.90625 11.597656 -22.726562 12.453125 -22.375 C 13.316406 -22.03125 13.953125 -21.726562 14.359375 -21.46875 C 15.335938 -20.75 15.925781 -21.210938 16.125 -22.859375 L 17.078125 -22.859375 C 17.015625 -22.023438 16.96875 -21.039062 16.9375 -19.90625 C 16.914062 -18.769531 16.90625 -17.253906 16.90625 -15.359375 L 15.953125 -15.359375 C 15.804688 -16.421875 15.53125 -17.453125 15.125 -18.453125 C 14.726562 -19.460938 14.140625 -20.304688 13.359375 -20.984375 C 12.585938 -21.660156 11.570312 -22 10.3125 -22 C 9.414062 -22 8.671875 -21.738281 8.078125 -21.21875 C 7.492188 -20.695312 7.203125 -19.960938 7.203125 -19.015625 C 7.203125 -18.148438 7.457031 -17.394531 7.96875 -16.75 C 8.488281 -16.101562 9.160156 -15.5 9.984375 -14.9375 C 10.804688 -14.382812 11.660156 -13.773438 12.546875 -13.109375 C 13.585938 -12.421875 14.507812 -11.722656 15.3125 -11.015625 C 16.113281 -10.316406 16.757812 -9.539062 17.25 -8.6875 C 17.738281 -7.84375 17.984375 -6.84375 17.984375 -5.6875 C 17.984375 -4.363281 17.613281 -3.234375 16.875 -2.296875 C 16.144531 -1.367188 15.179688 -0.648438 13.984375 -0.140625 C 12.796875 0.359375 11.484375 0.609375 10.046875 0.609375 C 9.273438 0.609375 8.570312 0.535156 7.9375 0.390625 C 7.300781 0.242188 6.738281 0.0546875 6.25 -0.171875 C 5.875 -0.367188 5.535156 -0.550781 5.234375 -0.71875 C 4.929688 -0.894531 4.625 -1.046875 4.3125 -1.171875 C 4.019531 -1.304688 3.765625 -1.242188 3.546875 -0.984375 C 3.335938 -0.734375 3.175781 -0.304688 3.0625 0.296875 L 2.109375 0.296875 C 2.171875 -0.617188 2.210938 -1.738281 2.234375 -3.0625 C 2.265625 -4.382812 2.28125 -6.140625 2.28125 -8.328125 L 3.234375 -8.328125 C 3.429688 -6.742188 3.738281 -5.351562 4.15625 -4.15625 C 4.570312 -2.96875 5.179688 -2.035156 5.984375 -1.359375 C 6.796875 -0.679688 7.832031 -0.34375 9.09375 -0.34375 C 9.644531 -0.34375 10.171875 -0.457031 10.671875 -0.6875 C 11.171875 -0.914062 11.585938 -1.273438 11.921875 -1.765625 C 12.253906 -2.253906 12.421875 -2.914062 12.421875 -3.75 C 12.421875 -5.019531 11.988281 -6.070312 11.125 -6.90625 C 10.257812 -7.738281 9.179688 -8.628906 7.890625 -9.578125 C 6.910156 -10.296875 5.992188 -11 5.140625 -11.6875 C 4.296875 -12.375 3.609375 -13.148438 3.078125 -14.015625 C 2.546875 -14.878906 2.28125 -15.898438 2.28125 -17.078125 C 2.28125 -18.367188 2.609375 -19.4375 3.265625 -20.28125 C 3.929688 -21.132812 4.800781 -21.785156 5.875 -22.234375 C 6.957031 -22.679688 8.117188 -22.90625 9.359375 -22.90625 Z M 9.359375 -22.90625 "/></g></g></g><g fill="#00a63e" fill-opacity="1"><g transform="translate(180.868816, 52.471419)"><g><path d="M 9.1875 -33.765625 L 9.1875 -18.5 C 9.90625 -20.113281 10.90625 -21.25 12.1875 -21.90625 C 13.46875 -22.570312 14.851562 -22.90625 16.34375 -22.90625 C 17.519531 -22.90625 18.484375 -22.742188 19.234375 -22.421875 C 19.984375 -22.109375 20.585938 -21.707031 21.046875 -21.21875 C 21.535156 -20.664062 21.882812 -19.957031 22.09375 -19.09375 C 22.3125 -18.238281 22.421875 -17.078125 22.421875 -15.609375 L 22.421875 -4.015625 C 22.421875 -2.804688 22.644531 -1.984375 23.09375 -1.546875 C 23.539062 -1.117188 24.296875 -0.90625 25.359375 -0.90625 L 25.359375 0 C 24.835938 -0.03125 24.046875 -0.0664062 22.984375 -0.109375 C 21.921875 -0.148438 20.875 -0.171875 19.84375 -0.171875 C 18.800781 -0.171875 17.773438 -0.148438 16.765625 -0.109375 C 15.765625 -0.0664062 15.003906 -0.03125 14.484375 0 L 14.484375 -0.90625 C 15.410156 -0.90625 16.054688 -1.117188 16.421875 -1.546875 C 16.796875 -1.984375 16.984375 -2.804688 16.984375 -4.015625 L 16.984375 -17.078125 C 16.984375 -17.847656 16.910156 -18.539062 16.765625 -19.15625 C 16.628906 -19.78125 16.351562 -20.269531 15.9375 -20.625 C 15.519531 -20.988281 14.894531 -21.171875 14.0625 -21.171875 C 13.132812 -21.171875 12.304688 -20.921875 11.578125 -20.421875 C 10.847656 -19.921875 10.265625 -19.21875 9.828125 -18.3125 C 9.398438 -17.40625 9.1875 -16.375 9.1875 -15.21875 L 9.1875 -4.015625 C 9.1875 -2.804688 9.378906 -1.984375 9.765625 -1.546875 C 10.148438 -1.117188 10.789062 -0.90625 11.6875 -0.90625 L 11.6875 0 C 11.195312 -0.03125 10.46875 -0.0664062 9.5 -0.109375 C 8.539062 -0.148438 7.546875 -0.171875 6.515625 -0.171875 C 5.472656 -0.171875 4.398438 -0.148438 3.296875 -0.109375 C 2.191406 -0.0664062 1.363281 -0.03125 0.8125 0 L 0.8125 -0.90625 C 1.882812 -0.90625 2.640625 -1.117188 3.078125 -1.546875 C 3.523438 -1.984375 3.75 -2.804688 3.75 -4.015625 L 3.75 -28.59375 C 3.75 -29.882812 3.539062 -30.835938 3.125 -31.453125 C 2.707031 -32.078125 1.9375 -32.390625 0.8125 -32.390625 L 0.8125 -33.296875 C 1.738281 -33.203125 2.632812 -33.15625 3.5 -33.15625 C 4.582031 -33.15625 5.597656 -33.207031 6.546875 -33.3125 C 7.503906 -33.414062 8.382812 -33.566406 9.1875 -33.765625 Z M 9.1875 -33.765625 "/></g></g></g><g fill="#00a63e" fill-opacity="1"><g transform="translate(206.829318, 52.471419)"><g><path d="M 9.234375 -33.765625 L 9.234375 -4.015625 C 9.234375 -2.804688 9.453125 -1.984375 9.890625 -1.546875 C 10.335938 -1.117188 11.09375 -0.90625 12.15625 -0.90625 L 12.15625 0 C 11.644531 -0.03125 10.863281 -0.0664062 9.8125 -0.109375 C 8.757812 -0.148438 7.6875 -0.171875 6.59375 -0.171875 C 5.53125 -0.171875 4.445312 -0.148438 3.34375 -0.109375 C 2.238281 -0.0664062 1.410156 -0.03125 0.859375 0 L 0.859375 -0.90625 C 1.921875 -0.90625 2.675781 -1.117188 3.125 -1.546875 C 3.570312 -1.984375 3.796875 -2.804688 3.796875 -4.015625 L 3.796875 -28.59375 C 3.796875 -29.882812 3.59375 -30.835938 3.1875 -31.453125 C 2.789062 -32.078125 2.015625 -32.390625 0.859375 -32.390625 L 0.859375 -33.296875 C 1.785156 -33.203125 2.675781 -33.15625 3.53125 -33.15625 C 4.625 -33.15625 5.644531 -33.207031 6.59375 -33.3125 C 7.539062 -33.414062 8.421875 -33.566406 9.234375 -33.765625 Z M 9.234375 -33.765625 "/></g></g></g><g fill="#00a63e" fill-opacity="1"><g transform="translate(219.895819, 52.471419)"><g><path d="M 21.828125 -22.296875 L 21.828125 -21.390625 C 21.273438 -21.273438 20.757812 -20.972656 20.28125 -20.484375 C 19.8125 -19.992188 19.363281 -19.128906 18.9375 -17.890625 L 12.546875 -0.390625 L 11.21875 1.640625 L 2.328125 -18.96875 C 1.785156 -20.0625 1.269531 -20.738281 0.78125 -21 C 0.289062 -21.257812 -0.113281 -21.390625 -0.4375 -21.390625 L -0.4375 -22.296875 C 0.394531 -22.210938 1.265625 -22.144531 2.171875 -22.09375 C 3.078125 -22.050781 3.992188 -22.03125 4.921875 -22.03125 C 5.984375 -22.03125 7.007812 -22.054688 8 -22.109375 C 8.988281 -22.171875 9.914062 -22.234375 10.78125 -22.296875 L 10.78125 -21.390625 C 10.125 -21.390625 9.535156 -21.34375 9.015625 -21.25 C 8.492188 -21.164062 8.15625 -20.929688 8 -20.546875 C 7.84375 -20.160156 7.953125 -19.492188 8.328125 -18.546875 L 13.71875 -5.390625 L 13.375 -5.21875 L 17.15625 -15.484375 C 17.644531 -16.835938 17.847656 -17.929688 17.765625 -18.765625 C 17.679688 -19.597656 17.363281 -20.226562 16.8125 -20.65625 C 16.269531 -21.082031 15.523438 -21.328125 14.578125 -21.390625 L 14.578125 -22.296875 C 15.035156 -22.265625 15.492188 -22.234375 15.953125 -22.203125 C 16.410156 -22.179688 16.851562 -22.160156 17.28125 -22.140625 C 17.71875 -22.128906 18.140625 -22.125 18.546875 -22.125 C 19.148438 -22.125 19.742188 -22.132812 20.328125 -22.15625 C 20.921875 -22.1875 21.421875 -22.234375 21.828125 -22.296875 Z M 12.546875 -0.390625 L 10.90625 3.96875 C 10.644531 4.6875 10.363281 5.296875 10.0625 5.796875 C 9.757812 6.304688 9.425781 6.71875 9.0625 7.03125 C 8.625 7.40625 8.097656 7.675781 7.484375 7.84375 C 6.867188 8.019531 6.1875 8.109375 5.4375 8.109375 C 4.769531 8.109375 4.128906 7.992188 3.515625 7.765625 C 2.898438 7.535156 2.382812 7.1875 1.96875 6.71875 C 1.550781 6.257812 1.34375 5.660156 1.34375 4.921875 C 1.34375 4.109375 1.613281 3.457031 2.15625 2.96875 C 2.695312 2.488281 3.445312 2.25 4.40625 2.25 C 5.238281 2.25 5.921875 2.457031 6.453125 2.875 C 6.984375 3.289062 7.25 3.914062 7.25 4.75 C 7.25 5.289062 7.085938 5.773438 6.765625 6.203125 C 6.453125 6.640625 6.007812 6.972656 5.4375 7.203125 C 5.582031 7.234375 5.71875 7.253906 5.84375 7.265625 C 5.96875 7.273438 6.078125 7.28125 6.171875 7.28125 C 7.003906 7.28125 7.75 7.007812 8.40625 6.46875 C 9.070312 5.925781 9.601562 5.0625 10 3.875 L 11.5625 -0.390625 Z M 12.546875 -0.390625 "/></g></g></g><g fill="#008236" fill-opacity="1"><g transform="translate(241.29663, 52.471419)"><g><path d="M 1.546875 -30.53125 C 2.265625 -30.5 3.1875 -30.46875 4.3125 -30.4375 C 5.4375 -30.414062 6.554688 -30.40625 7.671875 -30.40625 C 9.085938 -30.40625 10.425781 -30.414062 11.6875 -30.4375 C 12.945312 -30.46875 13.835938 -30.484375 14.359375 -30.484375 C 18.210938 -30.484375 21.078125 -29.691406 22.953125 -28.109375 C 24.835938 -26.535156 25.78125 -24.5 25.78125 -22 C 25.78125 -20.957031 25.59375 -19.867188 25.21875 -18.734375 C 24.851562 -17.597656 24.207031 -16.546875 23.28125 -15.578125 C 22.363281 -14.617188 21.109375 -13.835938 19.515625 -13.234375 C 17.921875 -12.628906 15.882812 -12.328125 13.40625 -12.328125 L 9.09375 -12.328125 L 9.09375 -13.203125 L 12.984375 -13.203125 C 14.796875 -13.203125 16.179688 -13.585938 17.140625 -14.359375 C 18.109375 -15.140625 18.753906 -16.160156 19.078125 -17.421875 C 19.410156 -18.679688 19.578125 -20.046875 19.578125 -21.515625 C 19.578125 -24.242188 19.128906 -26.285156 18.234375 -27.640625 C 17.347656 -28.992188 15.8125 -29.671875 13.625 -29.671875 C 12.445312 -29.671875 11.675781 -29.425781 11.3125 -28.9375 C 10.957031 -28.445312 10.78125 -27.457031 10.78125 -25.96875 L 10.78125 -4.75 C 10.78125 -3.65625 10.894531 -2.832031 11.125 -2.28125 C 11.351562 -1.738281 11.796875 -1.378906 12.453125 -1.203125 C 13.117188 -1.035156 14.070312 -0.9375 15.3125 -0.90625 L 15.3125 0 C 14.476562 -0.0625 13.398438 -0.0976562 12.078125 -0.109375 C 10.753906 -0.117188 9.390625 -0.125 7.984375 -0.125 C 6.773438 -0.125 5.609375 -0.117188 4.484375 -0.109375 C 3.359375 -0.0976562 2.378906 -0.0625 1.546875 0 L 1.546875 -0.859375 C 2.492188 -0.921875 3.207031 -1.035156 3.6875 -1.203125 C 4.164062 -1.378906 4.484375 -1.722656 4.640625 -2.234375 C 4.796875 -2.753906 4.875 -3.535156 4.875 -4.578125 L 4.875 -25.96875 C 4.875 -27.03125 4.796875 -27.8125 4.640625 -28.3125 C 4.484375 -28.8125 4.164062 -29.15625 3.6875 -29.34375 C 3.207031 -29.53125 2.492188 -29.640625 1.546875 -29.671875 Z M 1.546875 -30.53125 "/></g></g></g><g fill="#008236" fill-opacity="1"><g transform="translate(268.119611, 52.471419)"><g><path d="M 6.46875 -33.296875 C 7.507812 -33.296875 8.359375 -33.003906 9.015625 -32.421875 C 9.679688 -31.847656 10.015625 -31.085938 10.015625 -30.140625 C 10.015625 -29.191406 9.679688 -28.429688 9.015625 -27.859375 C 8.359375 -27.285156 7.507812 -27 6.46875 -27 C 5.4375 -27 4.585938 -27.285156 3.921875 -27.859375 C 3.265625 -28.429688 2.9375 -29.191406 2.9375 -30.140625 C 2.9375 -31.085938 3.265625 -31.847656 3.921875 -32.421875 C 4.585938 -33.003906 5.4375 -33.296875 6.46875 -33.296875 Z M 9.484375 -22.765625 L 9.484375 -4.015625 C 9.484375 -2.804688 9.707031 -1.984375 10.15625 -1.546875 C 10.601562 -1.117188 11.359375 -0.90625 12.421875 -0.90625 L 12.421875 0 C 11.898438 -0.03125 11.109375 -0.0664062 10.046875 -0.109375 C 8.984375 -0.148438 7.90625 -0.171875 6.8125 -0.171875 C 5.75 -0.171875 4.671875 -0.148438 3.578125 -0.109375 C 2.484375 -0.0664062 1.664062 -0.03125 1.125 0 L 1.125 -0.90625 C 2.1875 -0.90625 2.9375 -1.117188 3.375 -1.546875 C 3.820312 -1.984375 4.046875 -2.804688 4.046875 -4.015625 L 4.046875 -17.546875 C 4.046875 -18.867188 3.835938 -19.835938 3.421875 -20.453125 C 3.003906 -21.078125 2.238281 -21.390625 1.125 -21.390625 L 1.125 -22.296875 C 2.039062 -22.210938 2.929688 -22.171875 3.796875 -22.171875 C 4.859375 -22.171875 5.867188 -22.21875 6.828125 -22.3125 C 7.796875 -22.414062 8.679688 -22.566406 9.484375 -22.765625 Z M 9.484375 -22.765625 "/></g></g></g><g fill="#008236" fill-opacity="1"><g transform="translate(281.401733, 52.471419)"><g><path d="M 12.15625 -22.90625 C 13.21875 -22.90625 14.203125 -22.78125 15.109375 -22.53125 C 16.015625 -22.289062 16.800781 -21.953125 17.46875 -21.515625 C 18.15625 -21.085938 18.695312 -20.550781 19.09375 -19.90625 C 19.5 -19.257812 19.703125 -18.546875 19.703125 -17.765625 C 19.703125 -16.816406 19.414062 -16.054688 18.84375 -15.484375 C 18.269531 -14.910156 17.550781 -14.625 16.6875 -14.625 C 15.800781 -14.625 15.078125 -14.878906 14.515625 -15.390625 C 13.953125 -15.910156 13.671875 -16.601562 13.671875 -17.46875 C 13.671875 -18.300781 13.914062 -18.988281 14.40625 -19.53125 C 14.894531 -20.082031 15.484375 -20.441406 16.171875 -20.609375 C 15.910156 -20.984375 15.503906 -21.289062 14.953125 -21.53125 C 14.410156 -21.78125 13.8125 -21.90625 13.15625 -21.90625 C 12.289062 -21.90625 11.515625 -21.679688 10.828125 -21.234375 C 10.140625 -20.796875 9.539062 -20.132812 9.03125 -19.25 C 8.53125 -18.375 8.140625 -17.296875 7.859375 -16.015625 C 7.585938 -14.742188 7.453125 -13.269531 7.453125 -11.59375 C 7.453125 -9.269531 7.734375 -7.429688 8.296875 -6.078125 C 8.859375 -4.722656 9.582031 -3.765625 10.46875 -3.203125 C 11.363281 -2.648438 12.316406 -2.375 13.328125 -2.375 C 13.929688 -2.375 14.578125 -2.488281 15.265625 -2.71875 C 15.953125 -2.945312 16.632812 -3.332031 17.3125 -3.875 C 17.988281 -4.425781 18.597656 -5.203125 19.140625 -6.203125 L 19.96875 -5.90625 C 19.65625 -4.90625 19.144531 -3.898438 18.4375 -2.890625 C 17.726562 -1.878906 16.8125 -1.039062 15.6875 -0.375 C 14.570312 0.28125 13.207031 0.609375 11.59375 0.609375 C 9.757812 0.609375 8.09375 0.1875 6.59375 -0.65625 C 5.101562 -1.507812 3.914062 -2.796875 3.03125 -4.515625 C 2.15625 -6.242188 1.71875 -8.390625 1.71875 -10.953125 C 1.71875 -13.484375 2.164062 -15.628906 3.0625 -17.390625 C 3.957031 -19.160156 5.203125 -20.519531 6.796875 -21.46875 C 8.390625 -22.425781 10.175781 -22.90625 12.15625 -22.90625 Z M 12.15625 -22.90625 "/></g></g></g><g fill="#008236" fill-opacity="1"><g transform="translate(302.661747, 52.471419)"><g><path d="M 9.1875 -33.765625 L 9.1875 -4.015625 C 9.1875 -2.804688 9.382812 -1.984375 9.78125 -1.546875 C 10.1875 -1.117188 10.878906 -0.90625 11.859375 -0.90625 L 11.859375 0 C 11.367188 -0.03125 10.617188 -0.0664062 9.609375 -0.109375 C 8.609375 -0.148438 7.59375 -0.171875 6.5625 -0.171875 C 5.488281 -0.171875 4.398438 -0.148438 3.296875 -0.109375 C 2.191406 -0.0664062 1.363281 -0.03125 0.8125 0 L 0.8125 -0.90625 C 1.882812 -0.90625 2.640625 -1.117188 3.078125 -1.546875 C 3.523438 -1.984375 3.75 -2.804688 3.75 -4.015625 L 3.75 -28.59375 C 3.75 -29.882812 3.539062 -30.835938 3.125 -31.453125 C 2.707031 -32.078125 1.9375 -32.390625 0.8125 -32.390625 L 0.8125 -33.296875 C 1.738281 -33.203125 2.632812 -33.15625 3.5 -33.15625 C 4.582031 -33.15625 5.597656 -33.207031 6.546875 -33.3125 C 7.503906 -33.414062 8.382812 -33.566406 9.1875 -33.765625 Z M 23.15625 -22.296875 L 23.15625 -21.4375 C 22.289062 -21.257812 21.457031 -20.929688 20.65625 -20.453125 C 19.851562 -19.984375 19.0625 -19.332031 18.28125 -18.5 L 14.015625 -14.0625 L 14.484375 -15 L 22.078125 -3.140625 C 22.484375 -2.566406 22.863281 -2.085938 23.21875 -1.703125 C 23.582031 -1.316406 24.035156 -1.050781 24.578125 -0.90625 L 24.578125 0 C 24.203125 -0.03125 23.613281 -0.0664062 22.8125 -0.109375 C 22.007812 -0.148438 21.203125 -0.171875 20.390625 -0.171875 C 19.421875 -0.171875 18.425781 -0.148438 17.40625 -0.109375 C 16.382812 -0.0664062 15.613281 -0.03125 15.09375 0 L 15.09375 -0.90625 C 15.664062 -0.90625 16.0625 -1.039062 16.28125 -1.3125 C 16.5 -1.582031 16.460938 -1.9375 16.171875 -2.375 L 11.6875 -9.921875 C 11.28125 -10.554688 10.890625 -10.960938 10.515625 -11.140625 C 10.148438 -11.328125 9.648438 -11.421875 9.015625 -11.421875 L 9.015625 -12.296875 C 9.734375 -12.347656 10.328125 -12.472656 10.796875 -12.671875 C 11.273438 -12.878906 11.726562 -13.195312 12.15625 -13.625 L 15.390625 -16.859375 C 16.335938 -17.804688 16.816406 -18.609375 16.828125 -19.265625 C 16.847656 -19.929688 16.546875 -20.441406 15.921875 -20.796875 C 15.304688 -21.160156 14.515625 -21.375 13.546875 -21.4375 L 13.546875 -22.296875 C 14.316406 -22.265625 15.175781 -22.226562 16.125 -22.1875 C 17.070312 -22.144531 17.878906 -22.125 18.546875 -22.125 C 19.054688 -22.125 19.609375 -22.128906 20.203125 -22.140625 C 20.796875 -22.160156 21.359375 -22.179688 21.890625 -22.203125 C 22.421875 -22.234375 22.84375 -22.265625 23.15625 -22.296875 Z M 23.15625 -22.296875 "/></g></g></g><g fill="#008236" fill-opacity="1"><g transform="translate(326.336618, 52.471419)"><g><path d="M 11.984375 -22.90625 C 14.515625 -22.90625 16.5 -22.140625 17.9375 -20.609375 C 19.375 -19.085938 20.09375 -16.660156 20.09375 -13.328125 L 5.5625 -13.328125 L 5.515625 -14.140625 L 15.09375 -14.140625 C 15.15625 -15.554688 15.066406 -16.859375 14.828125 -18.046875 C 14.597656 -19.242188 14.234375 -20.203125 13.734375 -20.921875 C 13.234375 -21.640625 12.578125 -22 11.765625 -22 C 10.679688 -22 9.734375 -21.359375 8.921875 -20.078125 C 8.117188 -18.796875 7.617188 -16.703125 7.421875 -13.796875 L 7.59375 -13.546875 C 7.53125 -13.171875 7.488281 -12.765625 7.46875 -12.328125 C 7.457031 -11.898438 7.453125 -11.472656 7.453125 -11.046875 C 7.453125 -9.054688 7.738281 -7.414062 8.3125 -6.125 C 8.894531 -4.832031 9.644531 -3.882812 10.5625 -3.28125 C 11.488281 -2.675781 12.4375 -2.375 13.40625 -2.375 C 14.070312 -2.375 14.75 -2.472656 15.4375 -2.671875 C 16.125 -2.867188 16.796875 -3.238281 17.453125 -3.78125 C 18.117188 -4.332031 18.726562 -5.113281 19.28125 -6.125 L 20.09375 -5.78125 C 19.78125 -4.769531 19.253906 -3.769531 18.515625 -2.78125 C 17.785156 -1.789062 16.84375 -0.976562 15.6875 -0.34375 C 14.539062 0.289062 13.191406 0.609375 11.640625 0.609375 C 9.691406 0.609375 7.96875 0.175781 6.46875 -0.6875 C 4.96875 -1.550781 3.800781 -2.835938 2.96875 -4.546875 C 2.132812 -6.253906 1.71875 -8.347656 1.71875 -10.828125 C 1.71875 -13.441406 2.15625 -15.640625 3.03125 -17.421875 C 3.914062 -19.203125 5.132812 -20.5625 6.6875 -21.5 C 8.238281 -22.4375 10.003906 -22.90625 11.984375 -22.90625 Z M 11.984375 -22.90625 "/></g></g></g><g fill="#008236" fill-opacity="1"><g transform="translate(348.114114, 52.471419)"><g><path d="M 21.78125 -33.765625 L 21.78125 -4.703125 C 21.78125 -3.410156 21.992188 -2.453125 22.421875 -1.828125 C 22.859375 -1.210938 23.617188 -0.90625 24.703125 -0.90625 L 24.703125 0 C 23.816406 -0.0820312 22.925781 -0.125 22.03125 -0.125 C 20.96875 -0.125 19.960938 -0.0820312 19.015625 0 C 18.066406 0.0820312 17.175781 0.238281 16.34375 0.46875 L 16.34375 -28.59375 C 16.34375 -29.882812 16.132812 -30.835938 15.71875 -31.453125 C 15.300781 -32.078125 14.53125 -32.390625 13.40625 -32.390625 L 13.40625 -33.296875 C 14.332031 -33.203125 15.222656 -33.15625 16.078125 -33.15625 C 17.171875 -33.15625 18.191406 -33.207031 19.140625 -33.3125 C 20.097656 -33.414062 20.976562 -33.566406 21.78125 -33.765625 Z M 11.46875 -22.90625 C 12.738281 -22.90625 13.875 -22.660156 14.875 -22.171875 C 15.882812 -21.679688 16.632812 -20.859375 17.125 -19.703125 L 16.609375 -19.28125 C 16.203125 -20.113281 15.648438 -20.726562 14.953125 -21.125 C 14.265625 -21.53125 13.492188 -21.734375 12.640625 -21.734375 C 11.085938 -21.734375 9.84375 -20.863281 8.90625 -19.125 C 7.96875 -17.382812 7.5 -14.71875 7.5 -11.125 C 7.5 -8.707031 7.6875 -6.757812 8.0625 -5.28125 C 8.4375 -3.800781 8.972656 -2.726562 9.671875 -2.0625 C 10.378906 -1.40625 11.222656 -1.078125 12.203125 -1.078125 C 13.234375 -1.078125 14.164062 -1.5 15 -2.34375 C 15.84375 -3.195312 16.332031 -4.414062 16.46875 -6 L 16.78125 -4.78125 C 16.40625 -3.03125 15.695312 -1.691406 14.65625 -0.765625 C 13.625 0.148438 12.257812 0.609375 10.5625 0.609375 C 8.84375 0.609375 7.3125 0.1875 5.96875 -0.65625 C 4.632812 -1.507812 3.597656 -2.804688 2.859375 -4.546875 C 2.128906 -6.285156 1.765625 -8.492188 1.765625 -11.171875 C 1.765625 -13.785156 2.195312 -15.960938 3.0625 -17.703125 C 3.925781 -19.441406 5.085938 -20.742188 6.546875 -21.609375 C 8.015625 -22.472656 9.65625 -22.90625 11.46875 -22.90625 Z M 11.46875 -22.90625 "/></g></g></g><g clip-path="url(#78255253a9)"><path fill="#008236" d="M 34.910156 31.140625 C 36.402344 24.0625 44.128906 19.3125 45.371094 18.621094 C 59.519531 10.765625 74.238281 8.792969 74.238281 8.792969 C 52.082031 6.347656 37.871094 19.113281 37.871094 19.113281 C 50.558594 -16.503906 88.148438 9.644531 88.148438 9.644531 C 88.148438 9.644531 81.082031 12.332031 74.15625 18.195312 C 61.175781 29.195312 42.601562 21.855469 34.910156 31.140625 " fill-opacity="1" fill-rule="nonzero"/></g><g clip-path="url(#519736c7e2)"><path fill="#00a63e" d="M 29.597656 39.320312 C 31.003906 34.09375 27.460938 28.300781 26.867188 27.417969 C 20.09375 17.375 10.945312 11.0625 10.945312 11.0625 C 26.554688 16.953125 31.703125 30.292969 31.703125 30.292969 C 35.328125 2.222656 1.375 6.910156 1.375 6.910156 C 1.375 6.910156 5.175781 11.101562 7.804688 17.363281 C 12.734375 29.105469 27.617188 30.515625 29.597656 39.320312 " fill-opacity="1" fill-rule="nonzero"/></g><path fill="#f3c6a7" d="M 63.277344 39.480469 C 63.542969 39.332031 63.796875 39.203125 64.039062 39.082031 C 64.945312 37.976562 65.683594 36.992188 66.128906 36.273438 C 66.605469 35.503906 64.535156 35.445312 61.527344 38.324219 C 59.75 40.027344 57.984375 41.558594 56.273438 42.910156 C 58.433594 42 60.78125 40.867188 63.277344 39.480469 " fill-opacity="1" fill-rule="nonzero"/><path fill="#f3c6a7" d="M 23.132812 59.585938 C 23.132812 59.585938 29.234375 53.609375 35.996094 52.882812 C 38.753906 52.585938 50.304688 50.710938 55.964844 47.703125 C 60.351562 45.371094 66.5 41.292969 68.601562 39.296875 C 69.257812 38.671875 67.273438 38.089844 63.628906 40.113281 C 51.964844 46.59375 41.824219 48.34375 41.25 45.457031 C 40.75 42.960938 44.304688 40.449219 47.324219 38.671875 C 50.152344 37.003906 49.699219 36.355469 47.8125 36.675781 C 25.429688 40.445312 23.132812 59.585938 23.132812 59.585938 " fill-opacity="1" fill-rule="nonzero"/><path fill="#f3c6a7" d="M 10.417969 30.679688 C 10.402344 30.417969 10.378906 30.167969 10.347656 29.933594 C 10.734375 28.738281 11.101562 27.730469 11.417969 27.0625 C 11.757812 26.347656 12.785156 27.835938 12.101562 31.417969 C 11.695312 33.53125 11.410156 35.558594 11.226562 37.457031 C 10.871094 35.4375 10.585938 33.175781 10.417969 30.679688 " fill-opacity="1" fill-rule="nonzero"/><g clip-path="url(#d7d286b2e0)"><path fill="#f3c6a7" d="M 14.730469 69.726562 C 14.730469 69.726562 16.222656 62.40625 13.539062 57.09375 C 12.445312 54.925781 8.335938 45.546875 7.855469 39.960938 C 7.480469 35.628906 7.554688 29.175781 8.023438 26.683594 C 8.167969 25.90625 9.542969 27.085938 9.785156 30.722656 C 10.570312 42.375 14.105469 50.652344 16.5 49.703125 C 18.566406 48.886719 18.722656 45.078125 18.597656 42.015625 C 18.476562 39.148438 19.167969 39.171875 19.832031 40.710938 C 27.699219 58.945312 14.730469 69.726562 14.730469 69.726562 " fill-opacity="1" fill-rule="nonzero"/></g></svg>