<svg xmlns="http://www.w3.org/2000/svg" xmlns:xlink="http://www.w3.org/1999/xlink" width="500" zoomAndPan="magnify" viewBox="0 0 375 374.999991" height="500" preserveAspectRatio="xMidYMid meet" version="1.0"><defs><clipPath id="1f478a4012"><path d="M 145 38 L 374.699219 38 L 374.699219 172 L 145 172 Z M 145 38 " clip-rule="nonzero"/></clipPath><clipPath id="776bdbea6c"><path d="M 0.449219 65 L 133 65 L 133 207 L 0.449219 207 Z M 0.449219 65 " clip-rule="nonzero"/></clipPath><clipPath id="ddf51eee1a"><path d="M 27 150 L 92 150 L 92 337.3125 L 27 337.3125 Z M 27 150 " clip-rule="nonzero"/></clipPath></defs><g clip-path="url(#1f478a4012)"><path fill="#008236" d="M 145.421875 171.007812 C 151.867188 140.445312 185.230469 119.945312 190.589844 116.972656 C 251.660156 83.058594 315.191406 74.535156 315.191406 74.535156 C 219.554688 63.992188 158.203125 119.097656 158.203125 119.097656 C 212.980469 -34.652344 375.242188 78.222656 375.242188 78.222656 C 375.242188 78.222656 344.746094 89.808594 314.851562 115.132812 C 258.8125 162.605469 178.625 130.925781 145.421875 171.007812 " fill-opacity="1" fill-rule="nonzero"/></g><g clip-path="url(#776bdbea6c)"><path fill="#00a63e" d="M 122.488281 206.324219 C 128.566406 183.75 113.265625 158.746094 110.699219 154.941406 C 81.460938 111.589844 41.976562 84.335938 41.976562 84.335938 C 109.359375 109.765625 131.585938 167.351562 131.585938 167.351562 C 147.222656 46.183594 0.660156 66.417969 0.660156 66.417969 C 0.660156 66.417969 17.070312 84.496094 28.417969 111.539062 C 49.691406 162.230469 113.945312 168.316406 122.488281 206.324219 " fill-opacity="1" fill-rule="nonzero"/></g><path fill="#f3c6a7" d="M 267.882812 207.011719 C 269.023438 206.375 270.117188 205.8125 271.171875 205.292969 C 275.082031 200.511719 278.269531 196.273438 280.1875 193.171875 C 282.246094 189.84375 273.316406 189.585938 260.324219 202.027344 C 252.65625 209.371094 245.027344 215.980469 237.648438 221.8125 C 246.964844 217.886719 257.101562 213.003906 267.882812 207.011719 " fill-opacity="1" fill-rule="nonzero"/><path fill="#f3c6a7" d="M 94.59375 293.796875 C 94.59375 293.796875 120.917969 267.996094 150.109375 264.867188 C 162.019531 263.589844 211.886719 255.484375 236.3125 242.503906 C 255.253906 232.441406 281.789062 214.839844 290.859375 206.222656 C 293.695312 203.527344 285.125 201.007812 269.402344 209.746094 C 219.046875 237.722656 175.277344 245.269531 172.789062 232.804688 C 170.632812 222.039062 185.984375 211.199219 199.011719 203.519531 C 211.214844 196.324219 209.261719 193.527344 201.121094 194.902344 C 104.5 211.175781 94.59375 293.796875 94.59375 293.796875 " fill-opacity="1" fill-rule="nonzero"/><path fill="#f3c6a7" d="M 39.703125 169.023438 C 39.628906 167.882812 39.527344 166.8125 39.40625 165.792969 C 41.058594 160.644531 42.660156 156.292969 44.023438 153.40625 C 45.488281 150.3125 49.925781 156.746094 46.960938 172.203125 C 45.207031 181.332031 43.980469 190.074219 43.199219 198.273438 C 41.660156 189.558594 40.429688 179.789062 39.703125 169.023438 " fill-opacity="1" fill-rule="nonzero"/><g clip-path="url(#ddf51eee1a)"><path fill="#f3c6a7" d="M 58.308594 337.574219 C 58.308594 337.574219 64.753906 305.972656 53.175781 283.042969 C 48.457031 273.691406 30.707031 233.199219 28.636719 209.082031 C 27.027344 190.390625 27.34375 162.527344 29.363281 151.769531 C 29.992188 148.40625 35.921875 153.503906 36.976562 169.207031 C 40.355469 219.496094 55.613281 255.234375 65.953125 251.144531 C 74.882812 247.609375 75.550781 231.179688 75.003906 217.960938 C 74.488281 205.574219 77.472656 205.683594 80.332031 212.3125 C 114.300781 291.03125 58.308594 337.574219 58.308594 337.574219 " fill-opacity="1" fill-rule="nonzero"/></g></svg>